<svg width="31" height="31" xmlns="http://www.w3.org/2000/svg" xmlns:xlink="http://www.w3.org/1999/xlink" xml:space="preserve" overflow="hidden"><g><path d="M2.58333 15.8229C2.58333 16.8885 3.45521 17.7604 4.52083 17.7604L10.6562 17.7604C11.1729 17.7604 11.5927 18.1802 11.625 18.6969 11.5927 19.2781 10.6562 20.4406 10.6562 24.8646 10.6562 25.9302 11.5281 26.8021 12.5938 26.8021 13.6594 26.8021 14.5312 25.9302 14.5312 24.8646 14.5312 19.9562 20.2469 17.1792 20.3438 17.1146L20.3438 6.78125C18.051 6.78125 17.8896 4.19792 13.5625 4.19792 12.1094 4.19792 7.75 4.19792 7.75 4.19792 6.68437 4.19792 5.8125 5.06979 5.8125 6.13542 5.8125 6.65208 6.00625 7.10417 6.32917 7.42708 6.26459 7.42708 6.2 7.42708 6.13542 7.42708 5.06979 7.42708 4.19792 8.29896 4.19792 9.36458 4.19792 9.88125 4.39167 10.3656 4.74688 10.7208 3.875 10.9146 3.22917 11.6896 3.22917 12.5938 3.22917 13.1427 3.45521 13.6594 3.84271 14.0146 3.1 14.2729 2.58333 14.9833 2.58333 15.8229Z" fill="#EB4747"/><path d="M23.5729 18.7292 28.4167 18.7292 28.4167 5.16667 23.5729 5.16667C22.8625 5.16667 22.2812 5.74792 22.2812 6.45833L22.2812 17.4375C22.2812 18.1479 22.8625 18.7292 23.5729 18.7292Z" fill="#EB4747"/></g></svg>