<svg xmlns="http://www.w3.org/2000/svg" viewBox="0 0 64 64"><defs><style>.cls-1{fill:#a2d0ff;}.cls-2{fill:#8bc4ff;}.cls-3{fill:#d1e7ff;}.cls-4{fill:#2e58ff;}</style></defs><title>Visa</title><g id="Visa"><path class="cls-1" d="M53,16V56a6,6,0,0,1-6,6H11V10H47A6,6,0,0,1,53,16Z"/><path class="cls-2" d="M47,6.44V10H11C44.22,1.43,41.76,2,42.56,2A4.44,4.44,0,0,1,47,6.44Z"/><circle class="cls-3" cx="32" cy="30" r="12"/><path class="cls-4" d="M49,8.26V6.44A6.45,6.45,0,0,0,42.56,0C41.39-.07,10.29,8.13,10.19,8.18a2,2,0,0,0-.61.41C8.74,9.44,9,5.36,9,62a2,2,0,0,0,2,2H47a8,8,0,0,0,8-8V16A8,8,0,0,0,49,8.26ZM42.56,4A2.44,2.44,0,0,1,45,6.44V8H26.74C43.11,3.76,42.2,4,42.56,4ZM51,56a4,4,0,0,1-4,4H13V12H47a4,4,0,0,1,4,4Z"/><path class="cls-4" d="M32.08,16A14,14,0,1,0,46,30,14,14,0,0,0,32.08,16ZM41.8,28H38.87a19,19,0,0,0-2-6.73A10,10,0,0,1,41.8,28ZM29.16,28A14.92,14.92,0,0,1,32,21a14.92,14.92,0,0,1,2.84,7Zm5.68,4A14.92,14.92,0,0,1,32,39a14.92,14.92,0,0,1-2.84-7ZM27.13,21.27a19,19,0,0,0-2,6.73H22.2A10,10,0,0,1,27.13,21.27ZM22.2,32h2.93a19,19,0,0,0,2,6.73A10,10,0,0,1,22.2,32Zm14.67,6.73a19,19,0,0,0,2-6.73H41.8A10,10,0,0,1,36.87,38.73Z"/><path class="cls-4" d="M42,50H22a2,2,0,0,0,0,4H42a2,2,0,0,0,0-4Z"/></g></svg>