<svg xmlns="http://www.w3.org/2000/svg" viewBox="0 0 512 512"><defs><style>.cls-1{fill:#fc4581;}.cls-2{fill:#fff;}.cls-3{fill:#f7bb38;}.cls-4{fill:#ddd;}.cls-5{fill:#f6d372;}.cls-6{fill:#3e436d;}</style></defs><title>Public Transport</title><g id="BULINE"><circle class="cls-1" cx="256" cy="256" r="256"/></g><g id="Icons"><path class="cls-2" d="M278.3,413.39V511q-11,1-22.3,1-12.58,0-24.87-1.2V413.39Z"/><rect class="cls-3" x="106.87" y="54.83" width="295.69" height="364.67" rx="8.61"/><rect class="cls-2" x="133.59" y="153.89" width="242.24" height="221" rx="12.11"/><rect class="cls-4" x="231.13" y="419.5" width="47.17" height="26.56"/><circle class="cls-5" cx="388.73" cy="231.91" r="9.64"/><circle class="cls-5" cx="388.73" cy="211.83" r="6.83"/><path class="cls-6" d="M354.44,265.51H342.31l-8.44-46.59a32,32,0,0,0-31.5-26.31H288.54l-3.22-19.43a8.52,8.52,0,0,0-8.4-7.13H232.51a8.53,8.53,0,0,0-8.41,7.13l-3.22,19.43H207.06a32,32,0,0,0-31.5,26.31l-8.44,46.59H155a9.44,9.44,0,0,0-9.44,9.44v50.11A9.44,9.44,0,0,0,155,334.5h10.86v14a8.84,8.84,0,0,0,8.84,8.85h19.37a8.84,8.84,0,0,0,8.84-8.85v-14H305.56V348a8.84,8.84,0,0,0,8.85,8.84h19.37a8.84,8.84,0,0,0,8.84-8.84V334.5h11.82a9.44,9.44,0,0,0,9.44-9.44V275A9.44,9.44,0,0,0,354.44,265.51Z"/><path class="cls-2" d="M290.92,206.26H219.47a26.88,26.88,0,0,0-26.44,22l-6.81,37.21h137L317.48,229A26.88,26.88,0,0,0,290.92,206.26Z"/><circle class="cls-2" cx="168.18" cy="309.55" r="12.02"/><circle class="cls-2" cx="198.71" cy="309.55" r="12.02"/><circle class="cls-2" cx="309.57" cy="309.55" r="12.02"/><circle class="cls-2" cx="340.11" cy="309.55" r="12.02"/><rect class="cls-2" x="225.37" y="291.52" width="58.69" height="12.02" rx="6.01"/><rect class="cls-2" x="225.37" y="309.55" width="58.69" height="12.02" rx="6.01"/><path class="cls-2" d="M237.76,177.43v12.69H232.9V177.43h-3.46v-4h11.77v4Z"/><path class="cls-2" d="M251,190.12l-.95-3.29h-4.47l-1,3.29h-4.16l5.15-16.69H251l5.23,16.69Zm-4.55-6.94h2.7l-1.35-4.84Z"/><path class="cls-2" d="M272,173.43l-4.85,7.74,5.62,9h-6l-3.08-5.26-3.11,5.26h-4.69l5.38-8.62-5.16-8.07h6l2.59,4.49,2.68-4.49Z"/><path class="cls-2" d="M279,173.43v16.69h-5.12V173.43Z"/><rect class="cls-6" x="106.87" y="63.22" width="26.88" height="26.88"/><rect class="cls-6" x="160.63" y="63.22" width="26.88" height="26.88"/><rect class="cls-6" x="214.39" y="63.22" width="26.88" height="26.88"/><rect class="cls-6" x="268.15" y="63.22" width="26.88" height="26.88"/><rect class="cls-6" x="321.92" y="63.22" width="26.88" height="26.88"/><rect class="cls-6" x="375.68" y="63.22" width="26.88" height="26.88"/><rect class="cls-6" x="133.75" y="90.1" width="26.88" height="26.88"/><rect class="cls-6" x="187.51" y="90.1" width="26.88" height="26.88"/><rect class="cls-6" x="241.27" y="90.1" width="26.88" height="26.88"/><rect class="cls-6" x="295.03" y="90.1" width="26.88" height="26.88"/><rect class="cls-6" x="348.8" y="90.1" width="26.88" height="26.88"/></g></svg>